<?xml version="1.0" encoding="utf-8"?>
<svg id="master-artboard" viewBox="0 0 500 500" version="1.1" xmlns="http://www.w3.org/2000/svg" x="0px" y="0px" style="enable-background:new 0 0 1400 980;" width="500px" height="500px"><defs><style id="ee-google-fonts">@import url(https://fonts.googleapis.com/css?family=Audiowide:400);</style></defs><rect id="ee-background" x="0" y="0" width="500" height="500" style="fill: white; fill-opacity: 0; pointer-events: none;"/>



<g transform="matrix(1.2697243690490723, 0, 0, 1.2697243690490723, -605.1377440269348, -67.36905622157326)"><g transform="matrix(1, 0, 0, 1, 0, 0)">
		<path d="M 627 94.800003 A 5 10.5 0 0 1 622 105.300003 A 5 10.5 0 0 1 617 94.800003 A 5 10.5 0 0 1 622 84.300003 A 5 10.5 0 0 1 627 94.800003 Z" transform="matrix(0.5724 0.82 -0.82 0.5724 343.7491 -469.4952)" class="st0" style="fill: rgb(51, 51, 51); opacity: 1;"/>
		<path class="st0" d="M678.2,207.3c-0.4,0-0.7-0.1-1.1-0.2c-0.9-0.3-21.8-7.5-43.1-21.4c-28.7-18.8-43.9-41-43.9-64.2&#10;&#9;&#9;&#9;c0-27.3,22.2-49.6,49.6-49.6c15.1,0,29.1,6.8,38.5,18.4c9.4-11.6,23.4-18.4,38.5-18.4c27.3,0,49.6,22.2,49.6,49.6&#10;&#9;&#9;&#9;c0,23.2-15.2,45.4-43.9,64.2c-21.3,14-42.2,21.1-43.1,21.4C679,207.3,678.6,207.3,678.2,207.3z M639.7,78.7&#10;&#9;&#9;&#9;c-23.6,0-42.8,19.2-42.8,42.8c0,47.5,71.5,75.3,81.3,78.8c9.8-3.6,81.3-31.3,81.3-78.8c0-23.6-19.2-42.8-42.8-42.8&#10;&#9;&#9;&#9;c-14.4,0-27.7,7.2-35.7,19.2c-0.6,1-1.7,1.5-2.8,1.5s-2.2-0.6-2.8-1.5C667.4,85.9,654.1,78.7,639.7,78.7z" style="fill: rgb(51, 51, 51); opacity: 1;"/>
		<path class="st0" d="M801.9,233.8c-0.9-4.2-5.2-7.1-12.7-8.8c-1.2-0.3-2.6-0.4-4.1-0.4c-10.8,0-25.9,7.7-35,12.3&#10;&#9;&#9;&#9;c-2.6,1.3-5,2.6-5.9,2.9c-2.3,0.8-13.3,1.5-23.9,1.9c1.5-2.9,1.8-6.1,1.5-8.2c-0.1-6.2-3.2-13.4-17.7-13.4&#10;&#9;&#9;&#9;c-4.2,0-8.7,0.6-12.3,1.1c-2.4,0.3-4.7,0.6-6,0.6c-1.9,0-5-0.4-8.6-0.8c-5.8-0.7-12.9-1.5-20.1-1.5c-7.1,0-12.9,0.8-17.6,2.4&#10;&#9;&#9;&#9;c-20.5,7.1-24.2,15.2-29.2,26.3c-2.3,5.2-5,11-9.9,18.1c-23.6,34.2-45.3,67.3-45.5,67.7c-0.7,1-0.7,2.4-0.1,3.5&#10;&#9;&#9;&#9;c0.6,1.1,1.7,1.8,3,1.8h64.5c1.4,0,2.6-0.8,3.1-2.1c0.1-0.1,5.3-12.4,17.3-32.6c12.9-21.6,28.4-24.3,29-24.4c0.1,0,0.2,0,0.4-0.1&#10;&#9;&#9;&#9;c9.1-2.4,26.6-3.7,42-4.9c19.2-1.5,31.2-2.5,35.9-4.7c9.1-4.1,44.3-25,48.3-28.1C801.2,240.1,802.6,236.9,801.9,233.8z M794.1,237&#10;&#9;&#9;&#9;c-3.6,2.8-38.3,23.3-47,27.3c-3.9,1.8-19,2.9-33.6,4.1c-16.4,1.3-33.3,2.6-43,5.1c-2.3,0.4-19.7,4.1-33.7,27.6&#10;&#9;&#9;&#9;c-9.5,16-14.8,27-16.8,31.3h-55.9c7.1-10.7,23.9-36.1,42-62.2c5.2-7.6,8.2-14,10.5-19.2c4.9-10.7,7.5-16.6,25.3-22.7&#10;&#9;&#9;&#9;c4-1.4,9.1-2.1,15.4-2.1c6.8,0,13.8,0.8,19.4,1.4c4,0.5,7.1,0.8,9.3,0.8c1.8,0,4.2-0.3,6.9-0.7c3.6-0.5,7.6-1,11.4-1&#10;&#9;&#9;&#9;c10.8,0,10.8,4.4,10.8,6.8c0,0.1,0,0.3,0,0.4c0.1,1.1,0.3,6.4-5.3,8c-0.2,0-0.5,0.1-0.7,0.2l0,0c0,0-0.1,0-0.2,0.1&#10;&#9;&#9;&#9;c-0.1,0-0.1,0-0.2,0.1c-0.3,0.1-0.6,0.2-1.1,0.4c-0.5,0.2-1.2,0.4-1.9,0.6c-0.8,0.2-1.6,0.4-2.6,0.6c-1,0.2-2,0.4-3.1,0.5&#10;&#9;&#9;&#9;c-1.1,0.2-2.3,0.3-3.5,0.3c-0.6,0-1.2,0.1-1.9,0.1c-0.6,0-1.3,0-1.9,0c-0.7,0-1.3,0-2,0c-0.7,0-1.4-0.1-2.1-0.1l-1,0&#10;&#9;&#9;&#9;c-0.3,0-0.7,0-1.1,0c-0.8,0.1-1.5,0.1-2.2,0.2c-1.4,0.2-2.8,0.6-4.1,1c-1.3,0.4-2.5,1-3.5,1.5c-1.1,0.5-2.1,1.1-2.9,1.7&#10;&#9;&#9;&#9;c-1.8,1.1-3.1,2.3-4,3.1c-0.9,0.8-1.4,1.3-1.4,1.3s0.5-0.4,1.6-1.1c1-0.6,2.5-1.5,4.3-2.4c0.9-0.4,1.9-0.8,3-1.2&#10;&#9;&#9;&#9;c1.1-0.4,2.3-0.7,3.5-0.9c1.2-0.2,2.5-0.3,3.7-0.4c0.6,0,1.2,0.1,1.8,0.1c0.3,0,0.6,0.1,1,0.1l1,0.2c0.7,0.1,1.3,0.3,2,0.4&#10;&#9;&#9;&#9;c0.7,0.2,1.4,0.3,2.1,0.4c0.7,0.1,1.4,0.2,2.1,0.3c0.7,0.1,1.4,0.2,2,0.2c1.3,0.1,2.6,0.2,3.9,0.2c1.2,0,2.4,0,3.5,0&#10;&#9;&#9;&#9;c1.1,0,2.1-0.1,3-0.2c0.9-0.1,1.7-0.2,2.3-0.3c0.6-0.1,1.1-0.2,1.5-0.3c5.7-0.2,30.9-0.9,35.9-2.6c1.4-0.5,3.6-1.6,6.8-3.2&#10;&#9;&#9;&#9;c8-4,22.8-11.6,31.9-11.6c1,0,1.8,0.1,2.6,0.3c5.8,1.3,7.4,3.1,7.6,3.7C795.3,235.7,794.9,236.4,794.1,237z" style="fill: rgb(51, 51, 51); opacity: 1;"/>
	</g></g><path d="M 124.13862609863281 422.8381652832031 L 121.08863067626953 422.8381652832031 L 121.08863067626953 414.43817138671875 C 121.08863067626953 414.0381774902344 120.98529815673828 413.7348327636719 120.77862548828125 413.5281677246094 C 120.56529235839844 413.3215026855469 120.25196075439453 413.2181701660156 119.83863067626953 413.2181701660156 L 115.87863159179688 413.2181701660156 L 115.87863159179688 422.8381652832031 L 112.82862854003906 422.8381652832031 L 112.82862854003906 411.67816162109375 C 112.82862854003906 411.47149658203125 112.8686294555664 411.27484130859375 112.9486312866211 411.0881652832031 C 113.02196502685547 410.9081726074219 113.1319580078125 410.7481689453125 113.27862548828125 410.608154296875 C 113.41862487792969 410.4748229980469 113.58196258544922 410.3681640625 113.76863098144531 410.2881774902344 C 113.95529174804688 410.2081604003906 114.15196228027344 410.16815185546875 114.35862731933594 410.16815185546875 L 119.85862731933594 410.16815185546875 C 120.27862548828125 410.16815185546875 120.73196411132812 410.2414855957031 121.2186279296875 410.3881530761719 C 121.70529174804688 410.54150390625 122.16529846191406 410.781494140625 122.59862518310547 411.108154296875 L 122.59862518310547 410.16815185546875 L 126.72863006591797 410.16815185546875 C 127.01529693603516 410.16815185546875 127.3186264038086 410.2015075683594 127.63862609863281 410.2681579589844 C 127.95862579345703 410.3348388671875 128.27862548828125 410.43817138671875 128.5986328125 410.5781555175781 C 128.91195678710938 410.7181701660156 129.21530151367188 410.9014892578125 129.50863647460938 411.128173828125 C 129.7952880859375 411.3481750488281 130.0486297607422 411.6181640625 130.2686309814453 411.93817138671875 C 130.48863220214844 412.2514953613281 130.66195678710938 412.6148376464844 130.78863525390625 413.0281677246094 C 130.92196655273438 413.4414978027344 130.98863220214844 413.9114990234375 130.98863220214844 414.43817138671875 L 130.98863220214844 422.8381652832031 L 127.94862365722656 422.8381652832031 L 127.94862365722656 414.43817138671875 C 127.94862365722656 414.0381774902344 127.8486328125 413.7348327636719 127.64862823486328 413.5281677246094 C 127.44862365722656 413.3215026855469 127.14196014404297 413.2181701660156 126.72863006591797 413.2181701660156 L 123.98863220214844 413.2181701660156 C 124.08863067626953 413.59149169921875 124.13862609863281 413.9981689453125 124.13862609863281 414.43817138671875 L 124.13862609863281 422.8381652832031 ZM 146.8709259033203 418.6381530761719 C 146.8709259033203 419.0648193359375 146.79759216308594 419.521484375 146.6509246826172 420.0081787109375 C 146.4976043701172 420.4948425292969 146.2542724609375 420.9481506347656 145.92092895507812 421.3681640625 C 145.59426879882812 421.7881774902344 145.1609344482422 422.1381530761719 144.6209259033203 422.41815185546875 C 144.0876007080078 422.6981506347656 143.43759155273438 422.8381652832031 142.67092895507812 422.8381652832031 L 137.18093872070312 422.8381652832031 C 136.7542724609375 422.8381652832031 136.29759216308594 422.76483154296875 135.81092834472656 422.6181640625 C 135.3242645263672 422.46484375 134.8709259033203 422.2248229980469 134.450927734375 421.8981628417969 C 134.0309295654297 421.5648193359375 133.68093872070312 421.1315002441406 133.4009246826172 420.5981750488281 C 133.1209259033203 420.05816650390625 132.98092651367188 419.40484619140625 132.98092651367188 418.6381530761719 C 132.98092651367188 418.2181701660156 133.05426025390625 417.7615051269531 133.200927734375 417.2681579589844 C 133.35426330566406 416.781494140625 133.59426879882812 416.3281555175781 133.92092895507812 415.9081726074219 C 134.25425720214844 415.4881591796875 134.69093322753906 415.1381530761719 135.23092651367188 414.858154296875 C 135.76426696777344 414.5781555175781 136.4142608642578 414.43817138671875 137.18093872070312 414.43817138671875 L 142.67092895507812 414.43817138671875 L 142.67092895507812 417.3381652832031 L 137.18093872070312 417.3381652832031 C 136.76759338378906 417.3381652832031 136.44760131835938 417.46484375 136.22093200683594 417.7181701660156 C 135.9942626953125 417.9781799316406 135.8809356689453 418.2948303222656 135.8809356689453 418.66815185546875 C 135.8809356689453 419.06817626953125 136.01092529296875 419.378173828125 136.27093505859375 419.5981750488281 C 136.5309295654297 419.81817626953125 136.84092712402344 419.92816162109375 137.200927734375 419.92816162109375 L 142.67092895507812 419.92816162109375 C 143.08425903320312 419.92816162109375 143.40426635742188 419.8048400878906 143.6309356689453 419.55816650390625 C 143.85760498046875 419.3048400878906 143.97093200683594 418.9914855957031 143.97093200683594 418.6181640625 L 143.97093200683594 414.3681640625 C 143.97093200683594 413.9681701660156 143.84759521484375 413.6514892578125 143.60093688964844 413.41815185546875 C 143.36093139648438 413.1848449707031 143.05093383789062 413.06817626953125 142.67092895507812 413.06817626953125 L 135.98092651367188 413.06817626953125 L 135.98092651367188 410.16815185546875 L 142.67092895507812 410.16815185546875 C 143.09759521484375 410.16815185546875 143.55426025390625 410.2414855957031 144.04092407226562 410.3881530761719 C 144.52760314941406 410.54150390625 144.98092651367188 410.7848205566406 145.4009246826172 411.1181640625 C 145.81427001953125 411.44482421875 146.1642608642578 411.878173828125 146.450927734375 412.41815185546875 C 146.73092651367188 412.9515075683594 146.8709259033203 413.60150146484375 146.8709259033203 414.3681640625 L 146.8709259033203 418.6381530761719 ZM 163.3687286376953 418.55816650390625 C 163.3687286376953 419.0848388671875 163.30206298828125 419.5548400878906 163.16873168945312 419.9681701660156 C 163.035400390625 420.3881530761719 162.85873413085938 420.7581787109375 162.63873291015625 421.0781555175781 C 162.41873168945312 421.3915100097656 162.16539001464844 421.6581726074219 161.87872314453125 421.878173828125 C 161.59205627441406 422.1048278808594 161.28872680664062 422.2881774902344 160.96871948242188 422.42816162109375 C 160.6553955078125 422.56817626953125 160.33538818359375 422.6715087890625 160.00872802734375 422.7381591796875 C 159.68206787109375 422.8048400878906 159.37539672851562 422.8381652832031 159.08872985839844 422.8381652832031 L 153.58872985839844 422.8381652832031 C 153.0687255859375 422.8381652832031 152.60206604003906 422.771484375 152.188720703125 422.6381530761719 C 151.775390625 422.50482177734375 151.40872192382812 422.3281555175781 151.08872985839844 422.108154296875 C 150.775390625 421.8815002441406 150.50538635253906 421.62481689453125 150.2787322998047 421.3381652832031 C 150.05873107910156 421.051513671875 149.87872314453125 420.7481689453125 149.7387237548828 420.42816162109375 C 149.59872436523438 420.1148376464844 149.49539184570312 419.7948303222656 149.42872619628906 419.4681701660156 C 149.362060546875 419.1415100097656 149.32872009277344 418.8381652832031 149.32872009277344 418.55816650390625 L 149.32872009277344 414.43817138671875 C 149.32872009277344 413.6581726074219 149.47206115722656 412.9948425292969 149.75872802734375 412.4481506347656 C 150.03872680664062 411.9081726074219 150.39205932617188 411.4681701660156 150.8187255859375 411.128173828125 C 151.24539184570312 410.7881774902344 151.70872497558594 410.54150390625 152.20872497558594 410.3881530761719 C 152.70872497558594 410.2414855957031 153.16873168945312 410.16815185546875 153.58872985839844 410.16815185546875 L 159.08872985839844 410.16815185546875 L 159.08872985839844 413.2181701660156 L 153.6187286376953 413.2181701660156 C 153.21206665039062 413.2181701660156 152.9020538330078 413.3215026855469 152.688720703125 413.5281677246094 C 152.4820556640625 413.7348327636719 152.37872314453125 414.0381774902344 152.37872314453125 414.43817138671875 L 152.37872314453125 418.5381774902344 C 152.37872314453125 418.9515075683594 152.4820556640625 419.26483154296875 152.688720703125 419.4781799316406 C 152.8953857421875 419.6848449707031 153.1953887939453 419.7881774902344 153.58872985839844 419.7881774902344 L 159.08872985839844 419.7881774902344 C 159.50205993652344 419.7881774902344 159.8120574951172 419.6848449707031 160.0187225341797 419.4781799316406 C 160.21871948242188 419.26483154296875 160.3187255859375 418.9581604003906 160.3187255859375 418.55816650390625 L 160.3187255859375 404.81817626953125 L 163.3687286376953 404.81817626953125 L 163.3687286376953 418.55816650390625 ZM 179.9013671875 414.3681640625 C 179.9013671875 414.7881774902344 179.82803344726562 415.2414855957031 179.68136596679688 415.7281799316406 C 179.5280303955078 416.21484375 179.2880401611328 416.66815185546875 178.96136474609375 417.0881652832031 C 178.62803649902344 417.5081787109375 178.19137573242188 417.858154296875 177.6513671875 418.1381530761719 C 177.1180419921875 418.41815185546875 176.46803283691406 418.55816650390625 175.7013702392578 418.55816650390625 L 170.21136474609375 418.55816650390625 L 170.21136474609375 415.66815185546875 L 175.7013702392578 415.66815185546875 C 176.1147003173828 415.66815185546875 176.43470764160156 415.54150390625 176.661376953125 415.2881774902344 C 176.88803100585938 415.0348205566406 177.00137329101562 414.7181701660156 177.00137329101562 414.3381652832031 C 177.00137329101562 413.94482421875 176.8747100830078 413.63482666015625 176.62136840820312 413.4081726074219 C 176.3680419921875 413.1814880371094 176.06137084960938 413.06817626953125 175.7013702392578 413.06817626953125 L 170.21136474609375 413.06817626953125 C 169.79803466796875 413.06817626953125 169.47804260253906 413.19482421875 169.25137329101562 413.4481506347656 C 169.0247039794922 413.7015075683594 168.911376953125 414.01483154296875 168.911376953125 414.3881530761719 L 168.911376953125 418.6381530761719 C 168.911376953125 419.0448303222656 169.0380401611328 419.36151123046875 169.29136657714844 419.5881652832031 C 169.54470825195312 419.8148193359375 169.8580322265625 419.92816162109375 170.2313690185547 419.92816162109375 L 175.7013702392578 419.92816162109375 L 175.7013702392578 422.8381652832031 L 170.21136474609375 422.8381652832031 C 169.78469848632812 422.8381652832031 169.32803344726562 422.76483154296875 168.84136962890625 422.6181640625 C 168.35470581054688 422.46484375 167.9013671875 422.2248229980469 167.4813690185547 421.8981628417969 C 167.0680389404297 421.5648193359375 166.71803283691406 421.1315002441406 166.43136596679688 420.5981750488281 C 166.1513671875 420.05816650390625 166.01136779785156 419.40484619140625 166.01136779785156 418.6381530761719 L 166.01136779785156 414.3681640625 C 166.01136779785156 413.9414978027344 166.08470153808594 413.4848327636719 166.2313690185547 412.9981689453125 C 166.38470458984375 412.5115051269531 166.62803649902344 412.05816650390625 166.96136474609375 411.6381530761719 C 167.2880401611328 411.2248229980469 167.72137451171875 410.87481689453125 168.26136779785156 410.5881652832031 C 168.79470825195312 410.30816650390625 169.4447021484375 410.16815185546875 170.21136474609375 410.16815185546875 L 175.7013702392578 410.16815185546875 C 176.12803649902344 410.16815185546875 176.58470153808594 410.2414855957031 177.0713653564453 410.3881530761719 C 177.5580291748047 410.54150390625 178.01136779785156 410.7848205566406 178.43136596679688 411.1181640625 C 178.84469604492188 411.44482421875 179.1947021484375 411.878173828125 179.4813690185547 412.41815185546875 C 179.76136779785156 412.9515075683594 179.9013671875 413.60150146484375 179.9013671875 414.3681640625 ZM 203.38290405273438 414.3681640625 C 203.38290405273438 414.7881774902344 203.3095703125 415.2414855957031 203.16290283203125 415.7281799316406 C 203.0095672607422 416.21484375 202.7695770263672 416.66815185546875 202.44290161132812 417.0881652832031 C 202.1095733642578 417.5081787109375 201.67291259765625 417.858154296875 201.13290405273438 418.1381530761719 C 200.59957885742188 418.41815185546875 199.94956970214844 418.55816650390625 199.1829071044922 418.55816650390625 L 193.69290161132812 418.55816650390625 L 193.69290161132812 415.66815185546875 L 199.1829071044922 415.66815185546875 C 199.5962371826172 415.66815185546875 199.91624450683594 415.54150390625 200.14291381835938 415.2881774902344 C 200.36956787109375 415.0348205566406 200.48291015625 414.7181701660156 200.48291015625 414.3381652832031 C 200.48291015625 413.94482421875 200.3562469482422 413.63482666015625 200.1029052734375 413.4081726074219 C 199.84957885742188 413.1814880371094 199.54290771484375 413.06817626953125 199.1829071044922 413.06817626953125 L 193.69290161132812 413.06817626953125 C 193.27957153320312 413.06817626953125 192.95957946777344 413.19482421875 192.73291015625 413.4481506347656 C 192.50624084472656 413.7015075683594 192.39291381835938 414.01483154296875 192.39291381835938 414.3881530761719 L 192.39291381835938 418.6381530761719 C 192.39291381835938 419.0448303222656 192.5195770263672 419.36151123046875 192.7729034423828 419.5881652832031 C 193.0262451171875 419.8148193359375 193.33956909179688 419.92816162109375 193.71290588378906 419.92816162109375 L 199.1829071044922 419.92816162109375 L 199.1829071044922 422.8381652832031 L 193.69290161132812 422.8381652832031 C 193.2662353515625 422.8381652832031 192.8095703125 422.76483154296875 192.32290649414062 422.6181640625 C 191.83624267578125 422.46484375 191.38290405273438 422.2248229980469 190.96290588378906 421.8981628417969 C 190.54957580566406 421.5648193359375 190.19956970214844 421.1315002441406 189.91290283203125 420.5981750488281 C 189.63290405273438 420.05816650390625 189.49290466308594 419.40484619140625 189.49290466308594 418.6381530761719 L 189.49290466308594 414.3681640625 C 189.49290466308594 413.9414978027344 189.5662384033203 413.4848327636719 189.71290588378906 412.9981689453125 C 189.86624145507812 412.5115051269531 190.1095733642578 412.05816650390625 190.44290161132812 411.6381530761719 C 190.7695770263672 411.2248229980469 191.20291137695312 410.87481689453125 191.74290466308594 410.5881652832031 C 192.2762451171875 410.30816650390625 192.92623901367188 410.16815185546875 193.69290161132812 410.16815185546875 L 199.1829071044922 410.16815185546875 C 199.6095733642578 410.16815185546875 200.0662384033203 410.2414855957031 200.5529022216797 410.3881530761719 C 201.03956604003906 410.54150390625 201.49290466308594 410.7848205566406 201.91290283203125 411.1181640625 C 202.32623291015625 411.44482421875 202.67623901367188 411.878173828125 202.96290588378906 412.41815185546875 C 203.24290466308594 412.9515075683594 203.38290405273438 413.60150146484375 203.38290405273438 414.3681640625 ZM 218.4169464111328 418.6381530761719 C 218.4169464111328 419.0648193359375 218.34361267089844 419.521484375 218.1969451904297 420.0081787109375 C 218.0436248779297 420.4948425292969 217.80029296875 420.9481506347656 217.46694946289062 421.3681640625 C 217.14028930664062 421.7881774902344 216.7069549560547 422.1381530761719 216.1669464111328 422.41815185546875 C 215.6336212158203 422.6981506347656 214.98361206054688 422.8381652832031 214.21694946289062 422.8381652832031 L 208.72695922851562 422.8381652832031 C 208.30029296875 422.8381652832031 207.84361267089844 422.76483154296875 207.35694885253906 422.6181640625 C 206.8702850341797 422.46484375 206.4169464111328 422.2248229980469 205.9969482421875 421.8981628417969 C 205.5769500732422 421.5648193359375 205.22695922851562 421.1315002441406 204.9469451904297 420.5981750488281 C 204.6669464111328 420.05816650390625 204.52694702148438 419.40484619140625 204.52694702148438 418.6381530761719 C 204.52694702148438 418.2181701660156 204.60028076171875 417.7615051269531 204.7469482421875 417.2681579589844 C 204.90028381347656 416.781494140625 205.14028930664062 416.3281555175781 205.46694946289062 415.9081726074219 C 205.80027770996094 415.4881591796875 206.23695373535156 415.1381530761719 206.77694702148438 414.858154296875 C 207.31028747558594 414.5781555175781 207.9602813720703 414.43817138671875 208.72695922851562 414.43817138671875 L 214.21694946289062 414.43817138671875 L 214.21694946289062 417.3381652832031 L 208.72695922851562 417.3381652832031 C 208.31361389160156 417.3381652832031 207.99362182617188 417.46484375 207.76695251464844 417.7181701660156 C 207.540283203125 417.9781799316406 207.4269561767578 418.2948303222656 207.4269561767578 418.66815185546875 C 207.4269561767578 419.06817626953125 207.55694580078125 419.378173828125 207.81695556640625 419.5981750488281 C 208.0769500732422 419.81817626953125 208.38694763183594 419.92816162109375 208.7469482421875 419.92816162109375 L 214.21694946289062 419.92816162109375 C 214.63027954101562 419.92816162109375 214.95028686523438 419.8048400878906 215.1769561767578 419.55816650390625 C 215.40362548828125 419.3048400878906 215.51695251464844 418.9914855957031 215.51695251464844 418.6181640625 L 215.51695251464844 414.3681640625 C 215.51695251464844 413.9681701660156 215.39361572265625 413.6514892578125 215.14695739746094 413.41815185546875 C 214.90695190429688 413.1848449707031 214.59695434570312 413.06817626953125 214.21694946289062 413.06817626953125 L 207.52694702148438 413.06817626953125 L 207.52694702148438 410.16815185546875 L 214.21694946289062 410.16815185546875 C 214.64361572265625 410.16815185546875 215.10028076171875 410.2414855957031 215.58694458007812 410.3881530761719 C 216.07362365722656 410.54150390625 216.52694702148438 410.7848205566406 216.9469451904297 411.1181640625 C 217.36029052734375 411.44482421875 217.7102813720703 411.878173828125 217.9969482421875 412.41815185546875 C 218.27694702148438 412.9515075683594 218.4169464111328 413.60150146484375 218.4169464111328 414.3681640625 L 218.4169464111328 418.6381530761719 ZM 233.26473999023438 418.55816650390625 C 233.26473999023438 419.0848388671875 233.1980743408203 419.5548400878906 233.0647430419922 419.9681701660156 C 232.93141174316406 420.3881530761719 232.75474548339844 420.7581787109375 232.5347442626953 421.0781555175781 C 232.3147430419922 421.3915100097656 232.06141662597656 421.6581726074219 231.77474975585938 421.878173828125 C 231.48141479492188 422.1048278808594 231.17808532714844 422.2881774902344 230.86474609375 422.42816162109375 C 230.5447540283203 422.56817626953125 230.22474670410156 422.6715087890625 229.90475463867188 422.7381591796875 C 229.5780792236328 422.8048400878906 229.2714080810547 422.8381652832031 228.9847412109375 422.8381652832031 L 220.7347412109375 422.8381652832031 L 220.7347412109375 419.7881774902344 L 228.96475219726562 419.7881774902344 C 229.37808227539062 419.7881774902344 229.68807983398438 419.6848449707031 229.89474487304688 419.4781799316406 C 230.1080780029297 419.26483154296875 230.21475219726562 418.9581604003906 230.21475219726562 418.55816650390625 C 230.17474365234375 417.7448425292969 229.76473999023438 417.3381652832031 228.9847412109375 417.3381652832031 L 224.26473999023438 417.3381652832031 C 223.59141540527344 417.3381652832031 223.01808166503906 417.22149658203125 222.5447540283203 416.9881591796875 C 222.0780792236328 416.75482177734375 221.6980743408203 416.46148681640625 221.40475463867188 416.108154296875 C 221.11141967773438 415.7615051269531 220.9014129638672 415.38482666015625 220.77474975585938 414.9781799316406 C 220.64808654785156 414.5715026855469 220.58474731445312 414.1914978027344 220.58474731445312 413.8381652832031 C 220.58474731445312 413.1581726074219 220.70474243164062 412.5848388671875 220.9447479248047 412.1181640625 C 221.18475341796875 411.6581726074219 221.4880828857422 411.281494140625 221.85475158691406 410.9881591796875 C 222.22142028808594 410.7015075683594 222.6214141845703 410.4948425292969 223.05474853515625 410.3681640625 C 223.48141479492188 410.2348327636719 223.88475036621094 410.16815185546875 224.26473999023438 410.16815185546875 L 231.7447509765625 410.16815185546875 L 231.7447509765625 413.2181701660156 L 224.2847442626953 413.2181701660156 C 224.12474060058594 413.2181701660156 224.0014190673828 413.2348327636719 223.9147491455078 413.2681579589844 C 223.8280792236328 413.301513671875 223.76141357421875 413.3481750488281 223.71475219726562 413.4081726074219 C 223.67474365234375 413.4681701660156 223.64808654785156 413.531494140625 223.63475036621094 413.5981750488281 C 223.62808227539062 413.6648254394531 223.62474060058594 413.7281799316406 223.62474060058594 413.7881774902344 C 223.63140869140625 413.9148254394531 223.65475463867188 414.01483154296875 223.6947479248047 414.0881652832031 C 223.7347412109375 414.15484619140625 223.7847442626953 414.204833984375 223.84474182128906 414.2381591796875 C 223.90475463867188 414.271484375 223.97142028808594 414.2881774902344 224.0447540283203 414.2881774902344 C 224.1180877685547 414.2948303222656 224.19140625 414.29815673828125 224.26473999023438 414.29815673828125 L 228.9847412109375 414.29815673828125 C 229.76473999023438 414.29815673828125 230.42808532714844 414.43817138671875 230.97474670410156 414.7181701660156 C 231.5214080810547 414.9981689453125 231.96141052246094 415.35150146484375 232.2947540283203 415.7781677246094 C 232.63475036621094 416.204833984375 232.88140869140625 416.66815185546875 233.0347442626953 417.16815185546875 C 233.18807983398438 417.66815185546875 233.26473999023438 418.1315002441406 233.26473999023438 418.55816650390625 ZM 249.36190795898438 424.05816650390625 C 249.36190795898438 424.5781555175781 249.2952423095703 425.04815673828125 249.1619110107422 425.4681701660156 C 249.02857971191406 425.8881530761719 248.85191345214844 426.25482177734375 248.6319122314453 426.56817626953125 C 248.4119110107422 426.8881530761719 248.15858459472656 427.1581726074219 247.87191772460938 427.378173828125 C 247.5852508544922 427.6048278808594 247.28192138671875 427.7881774902344 246.9619140625 427.92816162109375 C 246.64857482910156 428.06817626953125 246.3319091796875 428.1715087890625 246.0119171142578 428.2381591796875 C 245.69190979003906 428.3048400878906 245.38525390625 428.3381652832031 245.0919189453125 428.3381652832031 L 239.60191345214844 428.3381652832031 L 239.60191345214844 425.2881774902344 L 245.0919189453125 425.2881774902344 C 245.4985809326172 425.2881774902344 245.8052520751953 425.1814880371094 246.0119171142578 424.9681701660156 C 246.2119140625 424.7615051269531 246.31192016601562 424.4581604003906 246.31192016601562 424.05816650390625 L 246.31192016601562 410.16815185546875 L 249.36190795898438 410.16815185546875 L 249.36190795898438 424.05816650390625 M 245.0919189453125 422.8381652832031 L 239.60191345214844 422.8381652832031 C 239.1619110107422 422.8381652832031 238.69525146484375 422.76483154296875 238.20191955566406 422.6181640625 C 237.70191955566406 422.46484375 237.23858642578125 422.2181701660156 236.81192016601562 421.878173828125 C 236.3785858154297 421.5448303222656 236.02191162109375 421.1048278808594 235.74191284179688 420.55816650390625 C 235.4619140625 420.0181579589844 235.32191467285156 419.35150146484375 235.32191467285156 418.55816650390625 L 235.32191467285156 410.16815185546875 L 238.37191772460938 410.16815185546875 L 238.37191772460938 418.55816650390625 C 238.37191772460938 418.9581604003906 238.47525024414062 419.26483154296875 238.68191528320312 419.4781799316406 C 238.89524841308594 419.6848449707031 239.20858764648438 419.7881774902344 239.62191772460938 419.7881774902344 L 245.0919189453125 419.7881774902344 L 245.0919189453125 422.8381652832031 Z" transform="matrix(2.9170119762420654, 0, 0, 2.9170119762420654, -266.9629821777344, -783.6589965820312)" style="fill: rgb(51, 51, 51); white-space: pre; color: rgb(51, 51, 51);"/></svg>